<svg height="48" width="48" xmlns:xlink="http://www.w3.org/1999/xlink" xmlns="http://www.w3.org/2000/svg" version="1.1"><defs><linearGradient id="color-1" gradientUnits="userSpaceOnUse" y2="52.11716" x2="52.19476" y1="7.00405" x1="6.92645"><stop stop-opacity="0.09" stop-color="#000000" offset="0"></stop><stop stop-opacity="0" stop-color="#000000" offset="1"></stop></linearGradient><filter id="dropshadow-base"><feColorMatrix type="matrix" values="0 0 0 0 0  0 0 0 0 0  0 0 0 0 0  0 0 0 .8 0"></feColorMatrix> <feOffset dx="0" dy="1"></feOffset> <feGaussianBlur stdDeviation="1"></feGaussianBlur> <feComposite in="SourceGraphic"></feComposite></filter><filter height="130%" width="120%" y="-10%" x="-10%" id="dropshadow-banner"><feColorMatrix type="matrix" values="0 0 0 0 0  0 0 0 0 0  0 0 0 0 0  0 0 0 .4 0"></feColorMatrix> <feOffset dx="0" dy="1"></feOffset> <feGaussianBlur stdDeviation="0.5"></feGaussianBlur> <feComposite in="SourceGraphic"></feComposite></filter></defs><g style="mix-blend-mode: normal" text-anchor="none" font-size="none" font-weight="none" font-family="none" stroke-dashoffset="0" stroke-dasharray="" stroke-miterlimit="10" stroke-linejoin="miter" stroke-linecap="butt" stroke-width="none" stroke="none" fill-rule="nonzero" fill="none"><path stroke-width="1" fill="#4f28ac" id="base 1 5" d="M4,40c-1.10457,0 -2,-0.89543 -2,-2v-28c0,-1.10457 0.89543,-2 2,-2h40c1.10457,0 2,0.89543 2,2v28c0,1.10457 -0.89543,2 -2,2z"></path><path stroke-width="1" fill="url(#color-1)" d="M10.88442,13.08068l2.19627,-2.19627l5.52326,5.52326c1.52212,-1.08347 3.38435,-1.72052 5.39605,-1.72052c0.58357,0 1.15455,0.05361 1.70831,0.15617l-3.26045,-3.26045l0,-3.58287l4.10023,0l5.62783,5.62783l2.7434,-2.7434l11.08068,11.08068v4.4736l-0.4678,0.4678l0.4678,0.4678v7.7607l-1.72211,-1.72211c0.10256,0.55376 0.15617,1.12474 0.15617,1.70831c0,1.78921 -0.50393,3.46018 -1.37767,4.87879h-20.60853v-3.32665l-4.23722,0l3.32665,3.32665h-5.57219l-5.0807,-5.0807l2.7046,-2.7046l-6.66256,-6.66256h3.10428l-3.10428,-3.10428h4.65642l3.26045,3.26045c-0.10256,-0.55376 -0.15617,-1.12474 -0.15617,-1.70831c0,-2.01171 0.63705,-3.87394 1.72053,-5.39607zM20.3972,33.56907h-0.7974l2.84806,2.84806h0.7974zM36.41713,22.70408h-0.54119l0.54119,0.54119zM36.67335,18.21064v4.23722h4.23722zM26.03002,33.09119c3.5149,-0.78069 6.28048,-3.54627 7.06117,-7.06117c-3.5149,0.78069 -6.28048,3.54627 -7.06117,7.06117z"></path><path stroke-width="0" fill="none" d="M15.85902,13.6705l-2.77833,-2.78609l-2.19628,2.19628l2.78609,2.78609zM11.58287,22.44786h-4.65642v3.10428h4.65642zM25.55214,7.00406h-3.10428v4.57882h3.10428zM37.11559,13.08069l-2.19628,-2.19628l-2.78609,2.78609l2.19628,2.19628zM32.14098,34.3295l2.78609,2.78609l2.19628,-2.19628l-2.78609,-2.78609zM36.41713,22.44786v3.10428h4.65642v-3.10428zM24,14.68715c-5.14535,0 -9.31285,4.1675 -9.31285,9.31285c0,5.14535 4.1675,9.31285 9.31285,9.31285c5.14535,0 9.31285,-4.1675 9.31285,-9.31285c0,-5.14535 -4.1675,-9.31285 -9.31285,-9.31285zM22.44786,40.99594h3.10428v-4.57882h-3.10428zM10.88441,34.91931l2.19628,2.19628l2.78609,-2.78609l-2.19628,-2.19628z"></path><path stroke-width="0" fill="#fffe01" d="M13.6705,15.86678l-2.78609,-2.78609l2.19628,-2.19628l2.77833,2.78609zM11.58287,25.55214h-4.65642v-3.10428h4.65642zM25.55214,11.58287h-3.10428l0,-3.58287h3.10428zM34.3295,15.86678l-2.19628,-2.19628l2.78609,-2.78609l2.19628,2.19628zM34.33726,32.13322l2.78609,2.78609l-2.19628,2.19628l-2.78609,-2.78609zM41.07355,22.44786v3.10428h-4.65642v-3.10428zM33.31285,24c0,5.14535 -4.1675,9.31285 -9.31285,9.31285c-5.14535,0 -9.31285,-4.1675 -9.31285,-9.31285c0,-5.14535 4.1675,-9.31285 9.31285,-9.31285c5.14535,0 9.31285,4.1675 9.31285,9.31285zM22.44786,36.41713h3.10428l0,3.58287h-3.10428zM13.6705,32.13322l2.19628,2.19628l-2.78609,2.78609l-2.19628,-2.19628z"></path><path stroke-width="1" fill="none" id="base 1 1 1" d="M2,24c0,-12.15026 9.84974,-22 22,-22c12.15026,0 22,9.84974 22,22c0,12.15026 -9.84974,22 -22,22c-12.15026,0 -22,-9.84974 -22,-22z"></path><g text-anchor="start" font-size="14" font-weight="400" font-family="Roboto,sans-serif" stroke-width="1" fill="#000000"></g><path filter="url(#dropshadow-banner)" stroke-width="1" fill="#06060b" id="banner 1" d="M16,36v-12h30v12z"></path><text text-anchor="middle" font-size="8" font-weight="bold" font-family="sans-serif" stroke-width="1" fill="#ffffff" y="33" x="31">DEV</text><rect stroke-width="1" fill="none" height="22" width="44" y="2" x="2"></rect><path stroke-width="1" fill="none" d="M2,24v-22h44v22z"></path><path stroke-width="1" fill="none" d="M2,24v-22h44v22z"></path><path stroke-width="1" fill="none" d="M2,24v-22h44v22z"></path><path stroke-width="1" fill="none" d="M2,24v-22h44v22z"></path></g></svg>